<svg width="75" height="71" viewBox="0 0 75 71" fill="none" xmlns="http://www.w3.org/2000/svg">
<path d="M70.5757 47.2H4.6103C2.30452 47.2 0.5 49.1 0.5 51.5V55C0.5 57.4 2.40477 59.3 4.6103 59.3H5.51257V60.4C5.51257 65.9 9.82337 70.5 15.1367 70.5H59.8488C65.1621 70.5 69.4729 66 69.4729 60.4V59.3H70.3752C72.681 59.3 74.4855 57.4 74.4855 55V51.5C74.686 49.2 72.7812 47.2 70.5757 47.2ZM66.6659 60.4C66.6659 64.3 63.6583 67.4 59.949 67.4H15.1367C11.4274 67.4 8.41985 64.2 8.41985 60.4V59.3H66.6659V60.4ZM71.7787 55C71.7787 55.7 71.1772 56.3 70.5757 56.3H4.51005C3.80829 56.3 3.30704 55.7 3.30704 55V51.5C3.30704 50.8 3.90855 50.2 4.51005 50.2H70.4754C71.1772 50.2 71.6784 50.8 71.6784 51.5C71.7787 51.5 71.7787 55 71.7787 55Z" fill="#83B3D3"/>
<path d="M16.1392 38.9L21.5528 43L26.8661 38.9L32.1794 43L37.4927 38.9L42.9063 43L48.2196 38.9L53.5329 43L58.9465 38.9L64.2598 43L70.4754 38.3L68.7711 35.8L64.2598 39.2L58.9465 35.1L53.5329 39.2L48.2196 35.1L42.9063 39.2L37.4927 35.1L32.1794 39.2L26.8661 35.1L21.5528 39.2L16.1392 35.1L10.8259 39.2L6.31458 35.8L4.6103 38.3L10.8259 43L16.1392 38.9Z" fill="#83B3D3"/>
<path d="M8.52011 32H69.4729C69.4729 31.4 69.5732 30.8 69.5732 30.1C69.5732 29.7 69.5732 29.3 69.5732 28.9C68.8714 13.2 54.8362 0.5 37.593 0.5C20.2495 0.5 6.21432 13.2 5.51257 29C5.51257 29.4 5.51257 29.8 5.51257 30.2C5.51257 30.8 5.50815 31.4 5.6084 32H8.52011ZM37.593 3.5C53.2322 3.5 66.0644 14.8 66.6659 29H8.52011C9.12161 14.9 21.9538 3.5 37.593 3.5Z" fill="#83B3D3"/>
<path d="M37.593 17.8C38.645 17.8 39.4978 16.9046 39.4978 15.8C39.4978 14.6954 38.645 13.8 37.593 13.8C36.541 13.8 35.6882 14.6954 35.6882 15.8C35.6882 16.9046 36.541 17.8 37.593 17.8Z" fill="#83B3D3"/>
<path d="M29.7734 12.7C30.8254 12.7 31.6782 11.8046 31.6782 10.7C31.6782 9.59543 30.8254 8.7 29.7734 8.7C28.7214 8.7 27.8686 9.59543 27.8686 10.7C27.8686 11.8046 28.7214 12.7 29.7734 12.7Z" fill="#83B3D3"/>
<path d="M45.3123 12.7C46.3643 12.7 47.2171 11.8046 47.2171 10.7C47.2171 9.59543 46.3643 8.7 45.3123 8.7C44.2604 8.7 43.4076 9.59543 43.4076 10.7C43.4076 11.8046 44.2604 12.7 45.3123 12.7Z" fill="#83B3D3"/>
</svg>
