<svg width="48" height="41" viewBox="0 0 48 41" fill="none" xmlns="http://www.w3.org/2000/svg">
<path fill-rule="evenodd" clip-rule="evenodd" d="M35.1164 14.3044C35.2824 13.7584 35.1164 13.3564 34.3214 13.3564H31.6964C31.0284 13.3564 30.7204 13.7034 30.5534 14.0864C30.5534 14.0864 29.2184 17.2824 27.3274 19.3584C26.7154 19.9604 26.4374 20.1514 26.1034 20.1514C25.9364 20.1514 25.6854 19.9604 25.6854 19.4134V14.3044C25.6854 13.6484 25.5014 13.3564 24.9454 13.3564H20.8174C20.4004 13.3564 20.1494 13.6604 20.1494 13.9494C20.1494 14.5704 21.0954 14.7144 21.1924 16.4624V20.2604C21.1924 21.0934 21.0394 21.2444 20.7054 21.2444C19.8154 21.2444 17.6504 18.0334 16.3654 14.3594C16.1164 13.6444 15.8644 13.3564 15.1934 13.3564H12.5664C11.8164 13.3564 11.6664 13.7034 11.6664 14.0864C11.6664 14.7684 12.5564 18.1564 15.8114 22.6374C17.9814 25.6974 21.0364 27.3564 23.8194 27.3564C25.4884 27.3564 25.6944 26.9884 25.6944 26.3534V24.0404C25.6944 23.3034 25.8524 23.1564 26.3814 23.1564C26.7714 23.1564 27.4384 23.3484 28.9964 24.8234C30.7764 26.5724 31.0694 27.3564 32.0714 27.3564H34.6964C35.4464 27.3564 35.8224 26.9884 35.6064 26.2604C35.3684 25.5364 34.5184 24.4854 33.3914 23.2384C32.7794 22.5284 31.8614 21.7634 31.5824 21.3804C31.1934 20.8894 31.3044 20.6704 31.5824 20.2334C31.5824 20.2334 34.7824 15.8074 35.1154 14.3044H35.1164Z" fill="#83B3D3"/>
</svg>
