<svg width="76" height="73" viewBox="0 0 76 73" fill="none" xmlns="http://www.w3.org/2000/svg">
<path d="M30.1185 65.5H46.1827V41.7H30.1185V65.5ZM33.0301 44.6H43.1707V62.6H33.0301V44.6Z" fill="#83B3D3"/>
<path d="M73.3916 39.8L75.5 37.7L65.5602 27.8V0.5H51.6044V14.1L37.9498 0.5L0.5 37.7L2.60843 39.8L10.4398 32V69.6H6.42369V72.5H70.5803V69.6H65.4598V32L73.3916 39.8ZM62.5482 69.6H13.3514V29L37.9498 4.6L62.5482 29V69.6ZM62.5482 24.9L54.6165 17V3.4H62.5482V24.9Z" fill="#83B3D3"/>
<path d="M30.3193 27.6C30.3193 31.9 33.8333 35.3 38.0502 35.3C42.3675 35.3 45.8815 31.8 45.8815 27.6C45.8815 23.3 42.3675 19.9 38.0502 19.9C33.8333 19.9 30.3193 23.3 30.3193 27.6ZM38.1506 22.6C40.8614 22.6 43.1707 24.8 43.1707 27.5C43.1707 30.2 40.9618 32.4 38.1506 32.4C35.4398 32.4 33.1305 30.2 33.1305 27.5C33.1305 24.8 35.3394 22.6 38.1506 22.6Z" fill="#83B3D3"/>
<path d="M20.4799 41.7H17.4679V45.6H20.4799V41.7Z" fill="#83B3D3"/>
<path d="M26.4036 41.7H23.3916V45.6H26.4036V41.7Z" fill="#83B3D3"/>
<path d="M20.4799 47.7H17.4679V51.6H20.4799V47.7Z" fill="#83B3D3"/>
<path d="M26.4036 47.7H23.3916V51.6H26.4036V47.7Z" fill="#83B3D3"/>
<path d="M52.508 41.7H49.496V45.6H52.508V41.7Z" fill="#83B3D3"/>
<path d="M58.4317 41.7H55.4197V45.6H58.4317V41.7Z" fill="#83B3D3"/>
<path d="M52.508 47.7H49.496V51.6H52.508V47.7Z" fill="#83B3D3"/>
<path d="M58.4317 47.7H55.4197V51.6H58.4317V47.7Z" fill="#83B3D3"/>
</svg>
