<svg width="65" height="77" viewBox="0 0 65 77" fill="none" xmlns="http://www.w3.org/2000/svg">
<path d="M61.6 22.9625H61.5H36.8C50.6 16.0576 51.7 11.6546 51.2 9.25288C50 5.25007 45.5 2.24797 41.2 3.84909C35.6 5.95056 34.1 14.2564 32.6 20.2606C30.6 14.1563 28.8 6.45091 24.4 2.54818C23.1 1.44741 21.3 0.246566 18.6 0.546776C14.6 0.947057 8.8 5.95056 11.1 11.5545C13.4 16.9583 20.8 20.3607 25.7 23.0626H3.7H3.4C1.8 23.0626 0.5 24.3635 0.5 25.9646V37.2725C0.5 38.8736 1.8 40.1745 3.4 40.1745H3.7V73.4979V75.8996V76.5H61.5V75.9996V73.4979V40.0745H61.6C63.2 40.0745 64.5 38.7736 64.5 37.1724V25.8645C64.5 24.2634 63.2 22.9625 61.6 22.9625ZM42.9 6.35084C45 6.05063 47.9 7.65176 48.2 9.55309C48.6 12.3551 44.8 14.8568 43.1 15.9576C40.6 17.6588 38.2 18.5594 35.8 20.0604C36.7 16.3579 38.3 7.05133 42.9 6.35084ZM20 16.3579C17.8 14.8568 13.5 11.9548 13.6 8.55239C13.7 4.94986 19.3 1.94776 22.4 4.64965C26.3 8.05203 28.1 15.7574 29.5 21.2613C26.3 19.7602 23.2 18.4593 20 16.3579ZM26 73.4979H6.6V40.0745H26V73.4979ZM26 36.9723H3.5V25.9646H26V36.9723ZM36.2 36.9723V39.9744V73.4979H29V40.0745V37.0724V26.0647H36.2V36.9723ZM58.5 73.4979H39.1V40.0745H58.5V73.4979ZM61.4 36.9723H39.1V25.9646H61.4V36.9723Z" fill="#83B3D3"/>
</svg>
